<svg width="512" height="512" xmlns="http://www.w3.org/2000/svg">

 <g>
  <title>background</title>
  <rect fill="none" id="canvas_background" height="514" width="514" y="-1" x="-1"/>
 </g>
 <g>
  <title>Layer 1</title>
  <circle id="svg_1" fill="#F0F0F0" r="256" cy="256" cx="256"/>
  <g id="svg_2">
   <path id="svg_3" fill="#0052B4" d="m52.92,100.142c-20.109,26.163 -35.272,56.318 -44.101,89.077l133.178,0l-89.077,-89.077z"/>
   <path id="svg_4" fill="#0052B4" d="m503.181,189.219c-8.829,-32.758 -23.993,-62.913 -44.101,-89.076l-89.075,89.076l133.176,0z"/>
   <path id="svg_5" fill="#0052B4" d="m8.819,322.784c8.83,32.758 23.993,62.913 44.101,89.075l89.074,-89.075l-133.175,0l0,0z"/>
   <path id="svg_6" fill="#0052B4" d="m411.858,52.921c-26.163,-20.109 -56.317,-35.272 -89.076,-44.102l0,133.177l89.076,-89.075z"/>
   <path id="svg_7" fill="#0052B4" d="m100.142,459.079c26.163,20.109 56.318,35.272 89.076,44.102l0,-133.176l-89.076,89.074z"/>
   <path id="svg_8" fill="#0052B4" d="m189.217,8.819c-32.758,8.83 -62.913,23.993 -89.075,44.101l89.075,89.075l0,-133.176z"/>
   <path id="svg_9" fill="#0052B4" d="m322.783,503.181c32.758,-8.83 62.913,-23.993 89.075,-44.101l-89.075,-89.075l0,133.176z"/>
   <path id="svg_10" fill="#0052B4" d="m370.005,322.784l89.075,89.076c20.108,-26.162 35.272,-56.318 44.101,-89.076l-133.176,0z"/>
  </g>
  <g id="svg_11">
   <path id="svg_12" fill="#D80027" d="m509.833,222.609l-220.44,0l-0.001,0l0,-220.442c-10.931,-1.423 -22.075,-2.167 -33.392,-2.167c-11.319,0 -22.461,0.744 -33.391,2.167l0,220.44l0,0.001l-220.442,0c-1.423,10.931 -2.167,22.075 -2.167,33.392c0,11.319 0.744,22.461 2.167,33.391l220.44,0l0.001,0l0,220.442c10.931,1.423 22.073,2.167 33.392,2.167c11.317,0 22.461,-0.743 33.391,-2.167l0,-220.44l0,-0.001l220.442,0c1.423,-10.931 2.167,-22.073 2.167,-33.392c0,-11.317 -0.744,-22.461 -2.167,-33.391z"/>
   <path id="svg_13" fill="#D80027" d="m322.783,322.784l0,0l114.236,114.236c5.254,-5.252 10.266,-10.743 15.048,-16.435l-97.802,-97.802l-31.482,0l0,0.001z"/>
   <path id="svg_14" fill="#D80027" d="m189.217,322.784l-0.002,0l-114.235,114.235c5.252,5.254 10.743,10.266 16.435,15.048l97.802,-97.804l0,-31.479z"/>
   <path id="svg_15" fill="#D80027" d="m189.217,189.219l0,-0.002l-114.236,-114.237c-5.254,5.252 -10.266,10.743 -15.048,16.435l97.803,97.803l31.481,0l0,0.001z"/>
   <path id="svg_16" fill="#D80027" d="m322.783,189.219l0,0l114.237,-114.238c-5.252,-5.254 -10.743,-10.266 -16.435,-15.047l-97.802,97.803l0,31.482z"/>
  </g>
 </g>
</svg>